# xmcd
#
# Track frame offsets: 
#        150
#        3310
#        26017
#        46191
#        76114
#        111641
#        130832
#        154778
#        178583
#        207716
#        240569
#        286035
#
# Disc length: 3929 seconds
#
# Revision: 0
# Processed by: cddbd v1.5.2PL0 Copyright (c) Steve Scherf et al.
# Submitted via: ExactAudioCopy v0.95b3
#
DISCID=9a0f570c
DTITLE=Freddie King - January Sound Studios, Dallas, TX, 31.03.1975
DYEAR=1900
DGENRE=
TTITLE0=KZEW intro (Ken Rundell)
TTITLE1=Big legged woman
TTITLE2=Woman across the river
TTITLE3=While the moon is shining bright
TTITLE4=Ain't nobody's business
TTITLE5=Key to the highway
TTITLE6=Hideaway
TTITLE7=Goin' down
TTITLE8=Early one morning
TTITLE9=Come on (part III)
TTITLE10=Have you ever loved a woman
TTITLE11=KZEW outro - Lonestar Skies (Freddie's commercial for Lonesta
TTITLE11=r Beer)
EXTD=
EXTT0=
EXTT1=
EXTT2=
EXTT3=
EXTT4=
EXTT5=
EXTT6=
EXTT7=
EXTT8=
EXTT9=
EXTT10=
EXTT11=
PLAYORDER=
